<svg width="45" height="45" viewBox="0 0 45 45" fill="none" xmlns="http://www.w3.org/2000/svg">
<rect x="0.5" y="0.5" width="44" height="44" rx="22" fill="#011142" stroke="white"/>
<path d="M22.1902 19.127C20.5022 19.127 19.1247 20.5045 19.1247 22.1925C19.1247 23.8804 20.5022 25.2579 22.1902 25.2579C23.8781 25.2579 25.2556 23.8804 25.2556 22.1925C25.2556 20.5045 23.8781 19.127 22.1902 19.127ZM31.3842 22.1925C31.3842 20.923 31.3957 19.6651 31.3244 18.398C31.2532 16.9262 30.9174 15.62 29.8412 14.5438C28.7626 13.4652 27.4587 13.1318 25.9869 13.0605C24.7175 12.9892 23.4596 13.0007 22.1925 13.0007C20.923 13.0007 19.6651 12.9892 18.398 13.0605C16.9262 13.1318 15.62 13.4675 14.5438 14.5438C13.4652 15.6223 13.1318 16.9262 13.0605 18.398C12.9892 19.6674 13.0007 20.9253 13.0007 22.1925C13.0007 23.4596 12.9892 24.7198 13.0605 25.9869C13.1318 27.4587 13.4675 28.7649 14.5438 29.8412C15.6223 30.9197 16.9262 31.2532 18.398 31.3244C19.6674 31.3957 20.9253 31.3842 22.1925 31.3842C23.4619 31.3842 24.7198 31.3957 25.9869 31.3244C27.4587 31.2532 28.7649 30.9174 29.8412 29.8412C30.9197 28.7626 31.2532 27.4587 31.3244 25.9869C31.398 24.7198 31.3842 23.4619 31.3842 22.1925ZM22.1902 26.9091C19.58 26.9091 17.4735 24.8026 17.4735 22.1925C17.4735 19.5823 19.58 17.4758 22.1902 17.4758C24.8003 17.4758 26.9068 19.5823 26.9068 22.1925C26.9068 24.8026 24.8003 26.9091 22.1902 26.9091ZM27.1 18.3842C26.4905 18.3842 25.9984 17.8921 25.9984 17.2827C25.9984 16.6733 26.4905 16.1811 27.1 16.1811C27.7094 16.1811 28.2015 16.6733 28.2015 17.2827C28.2017 17.4274 28.1733 17.5707 28.118 17.7044C28.0627 17.8382 27.9816 17.9597 27.8793 18.062C27.7769 18.1643 27.6554 18.2454 27.5217 18.3007C27.388 18.356 27.2447 18.3844 27.1 18.3842Z" fill="white"/>
</svg>
