<svg width="45" height="45" viewBox="0 0 45 45" fill="none" xmlns="http://www.w3.org/2000/svg">
<rect x="0.5" y="0.5" width="44" height="44" rx="22" fill="#011142" stroke="white"/>
<path fill-rule="evenodd" clip-rule="evenodd" d="M20.1908 19.8075H23.2858V21.3492C23.7317 20.4625 24.875 19.6658 26.5925 19.6658C29.885 19.6658 30.6667 21.4308 30.6667 24.6692V30.6667H27.3333V25.4067C27.3333 23.5625 26.8875 22.5225 25.7525 22.5225C24.1783 22.5225 23.5242 23.6433 23.5242 25.4058V30.6667H20.1908V19.8075ZM14.475 30.525H17.8083V19.6658H14.475V30.525ZM18.2858 16.125C18.286 16.4044 18.2305 16.681 18.1228 16.9388C18.0151 17.1966 17.8572 17.4304 17.6583 17.6267C17.2553 18.0272 16.7098 18.2514 16.1417 18.25C15.5745 18.2496 15.0303 18.026 14.6267 17.6275C14.4285 17.4306 14.2712 17.1965 14.1636 16.9387C14.0561 16.6809 14.0005 16.4044 14 16.125C14 15.5608 14.225 15.0208 14.6275 14.6225C15.0307 14.2235 15.5752 13.9998 16.1425 14C16.7108 14 17.2558 14.2242 17.6583 14.6225C18.06 15.0208 18.2858 15.5608 18.2858 16.125Z" fill="white"/>
</svg>
