<svg width="124" height="106" viewBox="0 0 124 106" fill="none" xmlns="http://www.w3.org/2000/svg">
<path d="M36.663 84.8805L34.6461 86.8473L33.7911 87.6795L33.9935 88.8596L36.0649 100.943L25.2143 95.2377L24.1547 94.6806L23.0974 95.2377L12.2468 100.943L14.3205 88.8596L14.5228 87.6795L13.6679 86.8473L4.8887 78.2932L17.0195 76.5265L18.2019 76.3559L18.7317 75.2827L24.1547 64.2934L29.58 75.2827L30.1098 76.3559L31.2922 76.5265L37.9317 77.4951L38.316 75.2531L31.6196 74.2777L24.1547 59.1545L16.6921 74.2777L0 76.7061L12.0808 88.4754L9.22713 105.101L24.1547 97.2477L39.0846 105.101L36.2332 88.4754L36.663 84.8805Z" fill="#D5D5D5"/>
<path d="M123.346 76.7061L106.656 74.2777L99.191 59.1545L91.7284 74.2777L84.5431 75.3236L84.9274 77.5656L92.0558 76.5265L93.2382 76.3559L93.768 75.2827L99.191 64.2934L104.616 75.2827L105.146 76.3559L106.329 76.5265L118.459 78.2932L109.682 86.8473L108.827 87.6795L109.03 88.8596L111.101 100.943L100.251 95.2377L99.191 94.6806L98.1337 95.2377L87.2831 100.943L89.3568 88.8596L89.5591 87.6795L88.7042 86.8473L86.0825 84.2915L86.7351 88.1047L87.1171 88.4754L84.2634 105.101L99.191 97.2477L114.121 105.101L111.27 88.4754L123.346 76.7061Z" fill="#D5D5D5"/>
<path d="M97.5489 41.6757L72.5847 38.0467L61.4225 15.4314L50.2626 38.0467L25.2985 41.6757L43.3662 59.2751L39.0982 84.1392L61.4225 72.4018L83.7468 84.1392L79.4811 59.2751L97.5489 41.6757ZM80.7909 80.0668L62.4617 70.4349L61.4225 69.8847L60.3834 70.4327L42.0542 80.0645L45.5604 59.6525L45.7582 58.4929L44.9169 57.6811L30.0871 43.2333L50.5833 40.2501L51.7452 40.0818L52.2591 39.0336L61.4225 20.4679L70.5905 39.0358L71.1044 40.0841L72.2663 40.2523L92.7602 43.2356L77.9304 57.6834L77.0914 58.4951L77.2892 59.6548L80.7909 80.0668Z" fill="#D5D5D5"/>
<path d="M26.6453 26.3258L7.13696 4.35205L5.43661 5.86164L24.945 27.8354L26.6453 26.3258Z" fill="#D5D5D5"/>
<path d="M21.9497 36.9245L1.81995 29.5081L1.03467 31.6394L21.1644 39.0559L21.9497 36.9245Z" fill="#D5D5D5"/>
<path d="M40.0943 24.7289L32.8229 -0.000488281L30.6392 0.641596L37.9106 25.371L40.0943 24.7289Z" fill="#D5D5D5"/>
<path d="M117.594 5.86359L115.894 4.354L96.3852 26.3277L98.0856 27.8373L117.594 5.86359Z" fill="#D5D5D5"/>
<path d="M101.877 39.0634L122.006 31.647L121.221 29.5156L101.091 36.932L101.877 39.0634Z" fill="#D5D5D5"/>
<path d="M92.3945 0.645257L90.2108 0.00317383L82.9394 24.7326L85.1231 25.3747L92.3945 0.645257Z" fill="#D5D5D5"/>
</svg>
