<svg width="30" height="30" viewBox="0 0 30 30" fill="none" xmlns="http://www.w3.org/2000/svg">
<rect x="0.5" y="0.5" width="29" height="29" rx="14.5" fill="#011142" stroke="white"/>
<path d="M21.175 18.3167C20.15 18.3167 19.1583 18.15 18.2333 17.85C18.0884 17.8009 17.9326 17.7936 17.7837 17.829C17.6349 17.8643 17.499 17.9409 17.3917 18.05L16.0833 19.6917C13.725 18.5667 11.5167 16.4417 10.3417 14L11.9667 12.6167C12.1917 12.3833 12.2583 12.0583 12.1667 11.7667C11.8583 10.8417 11.7 9.85 11.7 8.825C11.7 8.375 11.325 8 10.875 8H7.99167C7.54167 8 7 8.2 7 8.825C7 16.5667 13.4417 23 21.175 23C21.7667 23 22 22.475 22 22.0167V19.1417C22 18.6917 21.625 18.3167 21.175 18.3167Z" fill="white"/>
</svg>
