<svg width="155" height="155" viewBox="0 0 155 155" fill="none" xmlns="http://www.w3.org/2000/svg">
<path d="M128.482 62.2914C112.439 67.2277 95.5739 70.1071 79.2227 65.0681C70.8928 62.4971 67.3963 75.6604 75.829 78.1285C84.2617 80.5966 93.1058 81.2136 101.744 80.5966C89.4036 96.2279 72.1269 112.682 53.9246 99.2102C45.9032 93.2456 38.3961 86.3555 31.1974 79.3625C24.9243 73.2951 19.3711 65.0681 10.6299 62.9085C8.05896 62.1886 4.56247 64.2454 4.97382 67.3305C6.41355 79.4653 19.2683 89.2349 27.8038 97.3591C36.3393 105.483 46.3146 116.281 58.3466 119.058C82.5135 124.714 102.875 102.912 117.273 84.8129C113.673 96.8449 112.234 109.391 111.925 122.452C111.925 124.714 115.422 125.331 115.936 122.966C119.946 104.763 126.22 87.3839 135.372 71.2383C137.737 66.8163 133.521 60.7489 128.482 62.2914Z" fill="#001142"/>
</svg>
