<svg width="45" height="45" viewBox="0 0 45 45" fill="none" xmlns="http://www.w3.org/2000/svg">
<rect x="0.5" y="0.5" width="44" height="44" rx="22" fill="#011142" stroke="white"/>
<path d="M30.6422 16.6465C27.6282 11.9998 21.4745 10.6184 16.7022 13.5069C12.0555 16.3953 10.5485 22.6746 13.5626 27.3213L13.8137 27.6981L12.809 31.4656L16.5766 30.461L16.9534 30.7121C18.586 31.5912 20.3442 32.0936 22.1024 32.0936C23.9862 32.0936 25.87 31.5912 27.5026 30.5865C32.1493 27.5725 33.5307 21.4188 30.6422 16.6465ZM28.0049 26.3166C27.5026 27.0701 26.8746 27.5725 25.9955 27.6981C25.4932 27.6981 24.8653 27.9492 22.3536 26.9446C20.2186 25.9399 18.4604 24.3073 17.2045 22.4235C16.451 21.5444 16.0743 20.4141 15.9487 19.2838C15.9487 18.2791 16.3254 17.4 16.9534 16.7721C17.2045 16.5209 17.4557 16.3953 17.7069 16.3953H18.3348C18.586 16.3953 18.8372 16.3953 18.9627 16.8977C19.2139 17.5256 19.8418 19.0326 19.8418 19.1582C19.9674 19.2838 19.9674 19.535 19.8418 19.6606C19.9674 19.9118 19.8418 20.1629 19.7163 20.2885C19.5907 20.4141 19.4651 20.6653 19.3395 20.7909C19.0883 20.9164 18.9627 21.1676 19.0883 21.4188C19.5907 22.1723 20.2186 22.9258 20.8465 23.5537C21.6 24.1817 22.3536 24.684 23.2327 25.0608C23.4838 25.1864 23.735 25.1864 23.8606 24.9352C23.9862 24.684 24.6141 24.0561 24.8653 23.8049C25.1164 23.5537 25.242 23.5537 25.4932 23.6793L27.5026 24.684C27.7537 24.8096 28.0049 24.9352 28.1305 25.0608C28.2561 25.4375 28.2561 25.9399 28.0049 26.3166Z" fill="white"/>
</svg>
